<svg width="196" height="17" viewBox="0 0 196 17" fill="none" xmlns="http://www.w3.org/2000/svg">
<path d="M3.158 0.599999H6.062C7.00067 0.599999 7.80733 0.768666 8.482 1.106C9.15667 1.44333 9.67733 1.93467 10.044 2.58C10.4107 3.21067 10.594 3.966 10.594 4.846C10.594 5.52067 10.462 6.12933 10.198 6.672C9.934 7.2 9.582 7.64733 9.142 8.014C8.702 8.38067 8.20333 8.65933 7.646 8.85C7.08867 9.026 6.50933 9.092 5.908 9.048C5.32133 9.004 4.74933 8.83533 4.192 8.542V8.322C4.192 8.322 4.31667 8.344 4.566 8.388C4.81533 8.41733 5.13067 8.42467 5.512 8.41C5.908 8.38067 6.31867 8.3 6.744 8.168C7.184 8.02133 7.58733 7.772 7.954 7.42C8.33533 7.068 8.62133 6.57667 8.812 5.946C8.856 5.78467 8.89267 5.58667 8.922 5.352C8.95133 5.10267 8.95867 4.86067 8.944 4.626C8.92933 3.614 8.66533 2.8 8.152 2.184C7.63867 1.568 6.91267 1.26 5.974 1.26H3.378C3.378 1.26 3.356 1.20867 3.312 1.106C3.28267 0.988665 3.246 0.878666 3.202 0.775999C3.17267 0.658666 3.158 0.599999 3.158 0.599999ZM3.444 0.599999V16H2.014V0.599999H3.444ZM2.08 14.394V16H0.32V15.78C0.32 15.78 0.364 15.78 0.452 15.78C0.554667 15.78 0.606 15.78 0.606 15.78C0.987333 15.78 1.31 15.648 1.574 15.384C1.85267 15.1053 1.99933 14.7753 2.014 14.394H2.08ZM2.08 2.206H2.014C2.014 1.82467 1.87467 1.502 1.596 1.238C1.31733 0.959332 0.987333 0.819999 0.606 0.819999C0.606 0.819999 0.562 0.819999 0.474 0.819999C0.386 0.819999 0.342 0.819999 0.342 0.819999L0.32 0.599999H2.08V2.206ZM3.378 14.394H3.444C3.45867 14.7753 3.598 15.1053 3.862 15.384C4.14067 15.648 4.47067 15.78 4.852 15.78C4.852 15.78 4.896 15.78 4.984 15.78C5.08667 15.78 5.138 15.78 5.138 15.78V16H3.378V14.394ZM16.0338 0.599999V16H14.6038V0.599999H16.0338ZM21.9738 15.318V16H15.9678V15.318H21.9738ZM21.0278 8.08V8.74H15.9678V8.08H21.0278ZM21.9738 0.599999V1.282H15.9678V0.599999H21.9738ZM23.3158 12.436L22.0398 16H18.3878L19.1798 15.318C19.9572 15.318 20.5878 15.2007 21.0718 14.966C21.5705 14.7167 21.9738 14.372 22.2818 13.932C22.5898 13.492 22.8612 12.9933 23.0958 12.436H23.3158ZM21.0278 8.696V10.148H20.8078V9.818C20.8078 9.52467 20.7052 9.27533 20.4998 9.07C20.2945 8.85 20.0452 8.74 19.7518 8.74V8.696H21.0278ZM21.0278 6.672V8.124H19.7518V8.08C20.0452 8.06533 20.2945 7.95533 20.4998 7.75C20.7052 7.53 20.8078 7.27333 20.8078 6.98V6.672H21.0278ZM21.9738 1.216V2.976H21.7538V2.58C21.7538 2.228 21.6292 1.92733 21.3798 1.678C21.1305 1.414 20.8225 1.27467 20.4558 1.26V1.216H21.9738ZM21.9738 0.203999V0.842L19.2898 0.599999C19.6125 0.599999 19.9498 0.577999 20.3018 0.534C20.6685 0.489999 21.0058 0.438666 21.3138 0.379999C21.6218 0.321332 21.8418 0.262666 21.9738 0.203999ZM14.6698 14.394V16H12.9098V15.78C12.9098 15.78 12.9538 15.78 13.0418 15.78C13.1445 15.78 13.1958 15.78 13.1958 15.78C13.5772 15.78 13.8998 15.648 14.1638 15.384C14.4425 15.1053 14.5892 14.7753 14.6038 14.394H14.6698ZM14.6698 2.206H14.6038C14.6038 1.82467 14.4645 1.502 14.1858 1.238C13.9072 0.959332 13.5772 0.819999 13.1958 0.819999C13.1958 0.819999 13.1518 0.819999 13.0638 0.819999C12.9758 0.819999 12.9318 0.819999 12.9318 0.819999L12.9098 0.599999H14.6698V2.206ZM28.2303 0.599999H31.3323C31.9923 0.599999 32.5863 0.695332 33.1143 0.885999C33.6569 1.07667 34.1116 1.35533 34.4783 1.722C34.8449 2.074 35.1236 2.50667 35.3143 3.02C35.5196 3.51867 35.6223 4.09067 35.6223 4.736C35.6223 5.44 35.4536 6.11467 35.1163 6.76C34.7936 7.40533 34.3463 7.93333 33.7743 8.344C33.2169 8.74 32.5863 8.938 31.8823 8.938C32.1316 9.04067 32.4029 9.25333 32.6963 9.576C32.9896 9.884 33.2463 10.1847 33.4663 10.478C33.4663 10.478 33.5616 10.6247 33.7523 10.918C33.9576 11.1967 34.2069 11.5413 34.5003 11.952C34.8083 12.3627 35.1163 12.766 35.4243 13.162C35.7323 13.558 35.9963 13.8733 36.2163 14.108C36.5096 14.4307 36.8029 14.7167 37.0963 14.966C37.3896 15.2153 37.7049 15.4133 38.0423 15.56C38.3943 15.7067 38.7829 15.78 39.2083 15.78V16H37.9983C37.3236 16 36.7369 15.8973 36.2383 15.692C35.7543 15.4867 35.3436 15.2373 35.0063 14.944C34.6689 14.636 34.3829 14.3427 34.1483 14.064C34.1043 14.0053 33.9796 13.8367 33.7743 13.558C33.5836 13.2793 33.3489 12.9493 33.0703 12.568C32.8063 12.172 32.5423 11.7833 32.2783 11.402C32.0143 11.0207 31.7869 10.698 31.5963 10.434C31.4056 10.1553 31.2956 9.994 31.2663 9.95C30.9876 9.58333 30.6796 9.246 30.3423 8.938C30.0049 8.63 29.6383 8.476 29.2423 8.476V8.256C29.2423 8.256 29.3523 8.26333 29.5723 8.278C29.8069 8.278 30.0856 8.27067 30.4083 8.256C30.7896 8.24133 31.2076 8.18267 31.6623 8.08C32.1169 7.97733 32.5423 7.76467 32.9383 7.442C33.3343 7.11933 33.6349 6.628 33.8403 5.968C33.8843 5.80667 33.9209 5.60867 33.9503 5.374C33.9796 5.12467 33.9869 4.88267 33.9723 4.648C33.9576 3.65067 33.7009 2.85867 33.2023 2.272C32.7183 1.67067 32.0656 1.348 31.2443 1.304C30.8336 1.27467 30.4083 1.26733 29.9683 1.282C29.5429 1.282 29.1836 1.282 28.8903 1.282C28.5969 1.282 28.4503 1.282 28.4503 1.282C28.4503 1.26733 28.4283 1.20867 28.3843 1.106C28.3549 0.988665 28.3183 0.878666 28.2743 0.775999C28.2449 0.658666 28.2303 0.599999 28.2303 0.599999ZM28.5163 0.599999V16H27.0863V0.599999H28.5163ZM27.1523 14.394V16H25.3923V15.78C25.3923 15.78 25.4363 15.78 25.5243 15.78C25.6269 15.78 25.6783 15.78 25.6783 15.78C26.0596 15.78 26.3823 15.648 26.6463 15.384C26.9249 15.1053 27.0716 14.7753 27.0863 14.394H27.1523ZM27.1523 2.206H27.0863C27.0716 1.82467 26.9249 1.502 26.6463 1.238C26.3823 0.959332 26.0596 0.819999 25.6783 0.819999C25.6783 0.819999 25.6269 0.819999 25.5243 0.819999C25.4363 0.819999 25.3923 0.819999 25.3923 0.819999V0.599999H27.1523V2.206ZM28.4503 14.394H28.5163C28.5163 14.7753 28.6556 15.1053 28.9343 15.384C29.2129 15.648 29.5429 15.78 29.9243 15.78C29.9243 15.78 29.9683 15.78 30.0563 15.78C30.1443 15.78 30.1883 15.78 30.1883 15.78V16H28.4503V14.394ZM42.7389 0.599999V16H41.3089V0.599999H42.7389ZM47.7329 8.08V8.74H42.6729V8.08H47.7329ZM48.6789 0.599999V1.282H42.6729V0.599999H48.6789ZM47.7329 8.696V10.148H47.5129V9.818C47.5129 9.52467 47.4103 9.27533 47.2049 9.07C46.9996 8.85 46.7503 8.74 46.4569 8.74V8.696H47.7329ZM47.7329 6.672V8.124H46.4569V8.08C46.7503 8.06533 46.9996 7.95533 47.2049 7.75C47.4103 7.53 47.5129 7.27333 47.5129 6.98V6.672H47.7329ZM48.6789 1.216V2.69H48.4589V2.36C48.4589 2.06667 48.3489 1.81733 48.1289 1.612C47.9236 1.392 47.6743 1.282 47.3809 1.282V1.216H48.6789ZM48.6789 0.203999V0.842L45.9949 0.599999C46.3176 0.599999 46.6549 0.577999 47.0069 0.534C47.3736 0.489999 47.7109 0.438666 48.0189 0.379999C48.3269 0.321332 48.5469 0.262666 48.6789 0.203999ZM41.3749 14.394V16H39.6149V15.78C39.6149 15.78 39.6589 15.78 39.7469 15.78C39.8496 15.78 39.9009 15.78 39.9009 15.78C40.2823 15.78 40.6049 15.648 40.8689 15.384C41.1476 15.1053 41.2943 14.7753 41.3089 14.394H41.3749ZM41.3749 2.206H41.3089C41.3089 1.82467 41.1696 1.502 40.8909 1.238C40.6123 0.959332 40.2823 0.819999 39.9009 0.819999C39.9009 0.819999 39.8569 0.819999 39.7689 0.819999C39.6809 0.819999 39.6369 0.819999 39.6369 0.819999L39.6149 0.599999H41.3749V2.206ZM42.6729 14.394H42.7389C42.7536 14.7753 42.8929 15.1053 43.1569 15.384C43.4356 15.648 43.7656 15.78 44.1469 15.78C44.1469 15.78 44.1909 15.78 44.2789 15.78C44.3669 15.78 44.4183 15.78 44.4329 15.78V16H42.6729V14.394ZM54.6413 0.599999V16H53.2113V0.599999H54.6413ZM60.5813 15.318V16H54.5753V15.318H60.5813ZM59.6353 8.08V8.74H54.5753V8.08H59.6353ZM60.5813 0.599999V1.282H54.5753V0.599999H60.5813ZM61.9233 12.436L60.6473 16H56.9953L57.7873 15.318C58.5646 15.318 59.1953 15.2007 59.6793 14.966C60.1779 14.7167 60.5813 14.372 60.8893 13.932C61.1973 13.492 61.4686 12.9933 61.7033 12.436H61.9233ZM59.6353 8.696V10.148H59.4153V9.818C59.4153 9.52467 59.3126 9.27533 59.1073 9.07C58.9019 8.85 58.6526 8.74 58.3593 8.74V8.696H59.6353ZM59.6353 6.672V8.124H58.3593V8.08C58.6526 8.06533 58.9019 7.95533 59.1073 7.75C59.3126 7.53 59.4153 7.27333 59.4153 6.98V6.672H59.6353ZM60.5813 1.216V2.976H60.3613V2.58C60.3613 2.228 60.2366 1.92733 59.9873 1.678C59.7379 1.414 59.4299 1.27467 59.0633 1.26V1.216H60.5813ZM60.5813 0.203999V0.842L57.8973 0.599999C58.2199 0.599999 58.5573 0.577999 58.9093 0.534C59.2759 0.489999 59.6133 0.438666 59.9213 0.379999C60.2293 0.321332 60.4493 0.262666 60.5813 0.203999ZM53.2773 14.394V16H51.5173V15.78C51.5173 15.78 51.5613 15.78 51.6493 15.78C51.7519 15.78 51.8033 15.78 51.8033 15.78C52.1846 15.78 52.5073 15.648 52.7713 15.384C53.0499 15.1053 53.1966 14.7753 53.2113 14.394H53.2773ZM53.2773 2.206H53.2113C53.2113 1.82467 53.0719 1.502 52.7933 1.238C52.5146 0.959332 52.1846 0.819999 51.8033 0.819999C51.8033 0.819999 51.7593 0.819999 51.6713 0.819999C51.5833 0.819999 51.5393 0.819999 51.5393 0.819999L51.5173 0.599999H53.2773V2.206ZM78.0848 9.576L77.8208 13.03C77.4395 13.6607 76.9555 14.2253 76.3688 14.724C75.7968 15.208 75.1148 15.5967 74.3228 15.89C73.5455 16.1687 72.6508 16.308 71.6388 16.308C70.1135 16.2933 68.7568 15.956 67.5688 15.296C66.3808 14.636 65.4495 13.712 64.7748 12.524C64.1148 11.3213 63.7848 9.906 63.7848 8.278C63.7848 6.67933 64.1148 5.286 64.7748 4.098C65.4348 2.89533 66.3588 1.964 67.5468 1.304C68.7495 0.629332 70.1575 0.291999 71.7708 0.291999C72.8562 0.291999 73.8315 0.438666 74.6968 0.732C75.5768 1.01067 76.3395 1.36267 76.9848 1.788L77.4248 4.89H77.2268C76.9042 3.59933 76.2442 2.624 75.2468 1.964C74.2495 1.28933 73.0908 0.952 71.7708 0.952C70.4802 0.952 69.3582 1.26 68.4048 1.876C67.4662 2.47733 66.7328 3.328 66.2048 4.428C65.6915 5.51333 65.4348 6.78933 65.4348 8.256C65.4348 9.72267 65.6915 11.006 66.2048 12.106C66.7328 13.206 67.4588 14.064 68.3828 14.68C69.3215 15.296 70.4068 15.6187 71.6388 15.648C72.6802 15.648 73.6408 15.4573 74.5208 15.076C75.4155 14.68 76.1635 14.042 76.7648 13.162C77.3662 12.2673 77.7475 11.072 77.9088 9.576H78.0848ZM86.7037 0.665999V16H85.2737V0.665999H86.7037ZM92.3577 0.577999V1.238H79.6197V0.577999H92.3577ZM92.3577 1.172V2.954L92.1377 2.932V2.558C92.1377 2.19133 92.0057 1.88333 91.7417 1.634C91.4924 1.38467 91.1917 1.25267 90.8397 1.238V1.172H92.3577ZM92.3577 0.181999V0.819999L89.6737 0.577999C89.9964 0.577999 90.3337 0.555999 90.6857 0.511999C91.0524 0.467999 91.3897 0.416666 91.6977 0.357999C92.0057 0.299333 92.2257 0.240666 92.3577 0.181999ZM85.3397 14.394V16H83.5797V15.78C83.5797 15.78 83.6237 15.78 83.7117 15.78C83.8144 15.78 83.8657 15.78 83.8657 15.78C84.247 15.78 84.5697 15.648 84.8337 15.384C85.1124 15.1053 85.259 14.7753 85.2737 14.394H85.3397ZM86.6377 14.394H86.7037C86.7184 14.7753 86.8577 15.1053 87.1217 15.384C87.4004 15.648 87.7304 15.78 88.1117 15.78C88.1117 15.78 88.1557 15.78 88.2437 15.78C88.3464 15.78 88.3977 15.78 88.3977 15.78V16H86.6377V14.394ZM81.1377 1.172V1.238C80.771 1.25267 80.463 1.38467 80.2137 1.634C79.9644 1.88333 79.8397 2.19133 79.8397 2.558V2.932L79.6197 2.954V1.172H81.1377ZM79.6197 0.181999C79.7664 0.240666 79.9864 0.299333 80.2797 0.357999C80.5877 0.416666 80.925 0.467999 81.2917 0.511999C81.6584 0.555999 81.9957 0.577999 82.3037 0.577999L79.6197 0.819999V0.181999ZM99.6433 0.599999V16H95.1333V0.599999H99.6433ZM104.637 7.86V8.96H99.5773V7.86H104.637ZM105.803 0.599999V1.722H99.5773V0.599999H105.803ZM104.637 8.916V11.468H104.417V11.358C104.417 10.6687 104.19 10.104 103.735 9.664C103.295 9.20933 102.731 8.97467 102.041 8.96V8.916H104.637ZM104.637 5.352V7.904H102.041V7.86C102.731 7.84533 103.303 7.61067 103.757 7.156C104.212 6.70133 104.432 6.12933 104.417 5.44V5.352H104.637ZM105.803 1.656V4.736H105.583V4.56C105.583 3.68 105.334 2.99067 104.835 2.492C104.337 1.97867 103.64 1.71467 102.745 1.7V1.656H105.803ZM105.803 0.203999V0.842L103.119 0.599999C103.442 0.599999 103.779 0.577999 104.131 0.534C104.498 0.489999 104.835 0.438666 105.143 0.379999C105.451 0.321332 105.671 0.262666 105.803 0.203999ZM95.1993 14.394V16H93.4393V15.78C93.4393 15.78 93.4833 15.78 93.5713 15.78C93.674 15.78 93.7253 15.78 93.7253 15.78C94.1066 15.78 94.4293 15.648 94.6933 15.384C94.972 15.1053 95.1186 14.7753 95.1333 14.394H95.1993ZM95.1993 2.206H95.1333C95.1186 1.82467 94.972 1.502 94.6933 1.238C94.4293 0.959332 94.1066 0.819999 93.7253 0.819999C93.7253 0.819999 93.674 0.819999 93.5713 0.819999C93.4833 0.819999 93.4393 0.819999 93.4393 0.819999V0.599999H95.1993V2.206ZM99.5773 14.394H99.6433C99.658 14.7753 99.7973 15.1053 100.061 15.384C100.34 15.648 100.67 15.78 101.051 15.78C101.051 15.78 101.095 15.78 101.183 15.78C101.271 15.78 101.323 15.78 101.337 15.78V16H99.5773V14.394ZM113.522 0.599999V16H109.012V0.599999H113.522ZM119.242 14.878L120.122 16H113.456V14.878H119.242ZM121.024 10.896L120.188 16H115.436L116.228 14.878C116.932 14.878 117.585 14.724 118.186 14.416C118.802 14.0933 119.338 13.6387 119.792 13.052C120.247 12.4507 120.584 11.732 120.804 10.896H121.024ZM109.078 14.394V16H107.318V15.78C107.318 15.78 107.362 15.78 107.45 15.78C107.553 15.78 107.604 15.78 107.604 15.78C107.986 15.78 108.308 15.648 108.572 15.384C108.851 15.1053 108.998 14.7753 109.012 14.394H109.078ZM109.078 2.206H109.012C108.998 1.82467 108.851 1.502 108.572 1.238C108.308 0.959332 107.986 0.819999 107.604 0.819999C107.604 0.819999 107.553 0.819999 107.45 0.819999C107.362 0.819999 107.318 0.819999 107.318 0.819999V0.599999H109.078V2.206ZM113.456 2.206V0.599999H115.216V0.819999C115.202 0.819999 115.15 0.819999 115.062 0.819999C114.974 0.819999 114.93 0.819999 114.93 0.819999C114.549 0.819999 114.219 0.959332 113.94 1.238C113.676 1.502 113.537 1.82467 113.522 2.206H113.456ZM130.91 0.291999C132.802 0.291999 134.43 0.614666 135.794 1.26C137.172 1.89067 138.228 2.8 138.962 3.988C139.695 5.176 140.062 6.61333 140.062 8.3C140.062 9.972 139.695 11.4093 138.962 12.612C138.228 13.8 137.172 14.7167 135.794 15.362C134.43 15.9927 132.802 16.308 130.91 16.308C129.018 16.308 127.39 15.9927 126.026 15.362C124.662 14.7167 123.613 13.8 122.88 12.612C122.146 11.424 121.78 9.98667 121.78 8.3C121.78 6.628 122.146 5.198 122.88 4.01C123.613 2.80733 124.662 1.89067 126.026 1.26C127.39 0.614666 129.018 0.291999 130.91 0.291999ZM130.91 15.208C131.819 15.208 132.589 14.9367 133.22 14.394C133.865 13.8367 134.356 13.0447 134.694 12.018C135.031 10.9913 135.2 9.752 135.2 8.3C135.2 6.848 135.031 5.60867 134.694 4.582C134.356 3.55533 133.865 2.77067 133.22 2.228C132.589 1.67067 131.819 1.392 130.91 1.392C130.015 1.392 129.245 1.67067 128.6 2.228C127.969 2.77067 127.485 3.55533 127.148 4.582C126.81 5.60867 126.642 6.848 126.642 8.3C126.642 9.752 126.81 10.9913 127.148 12.018C127.485 13.0447 127.969 13.8367 128.6 14.394C129.245 14.9367 130.015 15.208 130.91 15.208ZM140.829 0.732H145.559L148.727 8.608L146.769 16.484L140.829 0.732ZM152.555 0.248L153.105 2.69L147.561 14.042C147.561 14.042 147.51 14.1667 147.407 14.416C147.319 14.6507 147.224 14.9513 147.121 15.318C147.033 15.6847 146.982 16.0733 146.967 16.484H146.769L146.021 13.448L152.357 0.248H152.555ZM152.555 0.269999L157.549 9.488L156.119 16.484L150.531 5.968L152.555 0.269999ZM160.805 0.732L156.647 14.042C156.647 14.042 156.611 14.174 156.537 14.438C156.464 14.6873 156.398 15.0027 156.339 15.384C156.295 15.7507 156.295 16.1173 156.339 16.484H156.119L155.261 14.306L159.111 0.732H160.805ZM158.693 2.184C158.811 1.744 158.774 1.40667 158.583 1.172C158.393 0.937332 158.151 0.819999 157.857 0.819999H157.659V0.599999H162.455V0.819999C162.455 0.819999 162.426 0.819999 162.367 0.819999C162.309 0.819999 162.279 0.819999 162.279 0.819999C161.942 0.819999 161.575 0.929999 161.179 1.15C160.783 1.35533 160.505 1.7 160.343 2.184H158.693ZM146.153 2.184H141.379C141.189 1.7 140.903 1.35533 140.521 1.15C140.14 0.929999 139.781 0.819999 139.443 0.819999C139.443 0.819999 139.414 0.819999 139.355 0.819999C139.297 0.819999 139.267 0.819999 139.267 0.819999V0.599999H147.165V0.819999H146.967C146.689 0.819999 146.439 0.937332 146.219 1.172C146.014 1.40667 145.992 1.744 146.153 2.184ZM168.436 0.599999V16H163.926V0.599999H168.436ZM174.156 14.878L175.036 16H168.37V14.878H174.156ZM173.43 7.86V8.96H168.37V7.86H173.43ZM174.596 0.599999V1.722H168.37V0.599999H174.596ZM175.938 10.896L175.102 16H170.35L171.142 14.878C171.846 14.878 172.499 14.724 173.1 14.416C173.716 14.0933 174.252 13.6387 174.706 13.052C175.161 12.4507 175.498 11.732 175.718 10.896H175.938ZM173.43 8.916V11.468H173.21V11.358C173.21 10.6687 172.983 10.104 172.528 9.664C172.088 9.20933 171.524 8.97467 170.834 8.96V8.916H173.43ZM173.43 5.352V7.904H170.834V7.86C171.524 7.84533 172.096 7.61067 172.55 7.156C173.005 6.70133 173.225 6.12933 173.21 5.44V5.352H173.43ZM174.596 1.656V4.736H174.376V4.56C174.376 3.68 174.127 2.99067 173.628 2.492C173.13 1.97867 172.433 1.71467 171.538 1.7V1.656H174.596ZM174.596 0.203999V0.842L171.912 0.599999C172.235 0.599999 172.572 0.577999 172.924 0.534C173.291 0.489999 173.628 0.438666 173.936 0.379999C174.244 0.321332 174.464 0.262666 174.596 0.203999ZM163.992 14.394V16H162.232V15.78C162.232 15.78 162.276 15.78 162.364 15.78C162.467 15.78 162.518 15.78 162.518 15.78C162.9 15.78 163.222 15.648 163.486 15.384C163.765 15.1053 163.912 14.7753 163.926 14.394H163.992ZM163.992 2.206H163.926C163.912 1.82467 163.765 1.502 163.486 1.238C163.222 0.959332 162.9 0.819999 162.518 0.819999C162.518 0.819999 162.467 0.819999 162.364 0.819999C162.276 0.819999 162.232 0.819999 162.232 0.819999V0.599999H163.992V2.206ZM182.956 0.599999H185.618C186.278 0.599999 186.953 0.658666 187.642 0.775999C188.331 0.893333 188.962 1.106 189.534 1.414C190.106 1.70733 190.568 2.12533 190.92 2.668C191.272 3.21067 191.448 3.90733 191.448 4.758C191.448 5.31533 191.345 5.89467 191.14 6.496C190.935 7.08267 190.575 7.60333 190.062 8.058C189.563 8.498 188.852 8.79133 187.928 8.938C188.544 9.114 189.079 9.41467 189.534 9.84C189.989 10.2653 190.348 10.698 190.612 11.138C190.641 11.182 190.715 11.3067 190.832 11.512C190.949 11.7173 191.096 11.974 191.272 12.282C191.463 12.5753 191.661 12.8833 191.866 13.206C192.071 13.5287 192.277 13.8293 192.482 14.108C192.819 14.5627 193.113 14.9073 193.362 15.142C193.611 15.3767 193.861 15.538 194.11 15.626C194.374 15.714 194.682 15.7653 195.034 15.78V16H192.284C191.404 16 190.59 15.9487 189.842 15.846C189.094 15.7433 188.419 15.516 187.818 15.164C187.231 14.812 186.711 14.2547 186.256 13.492C186.095 13.228 185.963 12.964 185.86 12.7C185.757 12.436 185.669 12.1793 185.596 11.93C185.523 11.6807 185.457 11.446 185.398 11.226C185.354 10.9913 185.31 10.7713 185.266 10.566C185.222 10.346 185.171 10.1407 185.112 9.95C184.965 9.422 184.789 9.06267 184.584 8.872C184.379 8.68133 184.173 8.54933 183.968 8.476V8.256C184.027 8.256 184.093 8.256 184.166 8.256C184.239 8.256 184.291 8.256 184.32 8.256C184.731 8.256 185.097 8.16067 185.42 7.97C185.743 7.77933 186.014 7.486 186.234 7.09C186.454 6.694 186.601 6.18067 186.674 5.55C186.689 5.43267 186.703 5.308 186.718 5.176C186.733 5.02933 186.733 4.85333 186.718 4.648C186.659 3.56267 186.388 2.80733 185.904 2.382C185.435 1.95667 184.87 1.744 184.21 1.744C184.137 1.744 184.041 1.744 183.924 1.744C183.807 1.744 183.682 1.744 183.55 1.744C183.418 1.744 183.293 1.744 183.176 1.744C183.176 1.744 183.154 1.64867 183.11 1.458C183.081 1.26733 183.044 1.07667 183 0.885999C182.971 0.695332 182.956 0.599999 182.956 0.599999ZM183.242 0.599999V16H178.71V0.599999H183.242ZM178.776 14.394V16H177.016V15.78C177.045 15.78 177.097 15.78 177.17 15.78C177.243 15.78 177.287 15.78 177.302 15.78C177.683 15.78 178.006 15.648 178.27 15.384C178.549 15.1053 178.695 14.7753 178.71 14.394H178.776ZM178.776 2.206H178.71C178.695 1.82467 178.549 1.502 178.27 1.238C178.006 0.959332 177.683 0.819999 177.302 0.819999C177.287 0.819999 177.243 0.819999 177.17 0.819999C177.097 0.819999 177.045 0.819999 177.016 0.819999V0.599999H178.776V2.206ZM183.176 14.394H183.242C183.242 14.7753 183.381 15.1053 183.66 15.384C183.939 15.648 184.269 15.78 184.65 15.78C184.679 15.78 184.723 15.78 184.782 15.78C184.855 15.78 184.899 15.78 184.914 15.78V16H183.176V14.394Z" fill="#3F3232"/>
</svg>
