<svg width="33" height="23" viewBox="0 0 33 23" fill="none" xmlns="http://www.w3.org/2000/svg">
<path d="M32.7696 11.8574C32.6621 11.6676 32.5169 11.5017 32.3429 11.37C32.1689 11.2383 31.9698 11.1437 31.7579 11.0918C30.3292 10.7453 28.8442 10.6988 27.3965 10.9551C28.0118 8.24805 27.6153 6.12891 27.2051 4.89844C27.0818 4.51128 26.8191 4.18369 26.468 3.9791C26.1169 3.77451 25.7024 3.70749 25.3048 3.79102C23.8943 4.11023 22.5608 4.70495 21.3809 5.54102C20.5463 3.53958 19.2031 1.79104 17.4844 0.46875C17.2005 0.255761 16.855 0.140625 16.5001 0.140625C16.1451 0.140625 15.7997 0.255761 15.5157 0.46875C13.797 1.79104 12.4538 3.53958 11.6192 5.54102C10.4393 4.70495 9.10581 4.11023 7.69538 3.79102C7.29771 3.70749 6.8832 3.77451 6.53212 3.9791C6.18104 4.18369 5.91837 4.51128 5.79499 4.89844C5.38483 6.12891 4.98835 8.24805 5.60358 10.9551C4.15598 10.6988 2.67096 10.7453 1.24225 11.0918C1.03031 11.1437 0.831228 11.2383 0.657239 11.37C0.483251 11.5017 0.338038 11.6676 0.230534 11.8574C0.0137521 12.2392 -0.0451288 12.6906 0.0664717 13.1152C0.531316 14.7559 1.95319 17.9004 6.25983 20.3887C10.5665 22.877 14.4356 22.8906 16.5001 22.8906C18.5645 22.8906 22.4063 22.8906 26.7403 20.3887C31.0743 17.8867 32.4688 14.7559 32.9337 13.1152C33.0453 12.6906 32.9864 12.2392 32.7696 11.8574ZM25.5372 4.87109C25.6675 4.84061 25.8045 4.86024 25.921 4.92609C26.0375 4.99194 26.125 5.0992 26.1661 5.22656C26.5626 6.45703 26.959 8.64453 26.1251 11.4609C26.1114 11.4883 26.1114 11.5156 26.0977 11.543C25.7699 12.6249 25.3108 13.6626 24.7305 14.6328C23.5608 16.6377 22.0039 18.3898 20.1505 19.7871L19.8087 20.0332C21.1895 18.2148 22.5157 15.4258 22.5157 11.4062C22.5295 9.77286 22.2802 8.14789 21.7774 6.59375C22.8937 5.75833 24.1755 5.171 25.5372 4.87109ZM16.1719 1.34375C16.2666 1.27275 16.3817 1.23438 16.5001 1.23438C16.6184 1.23438 16.7335 1.27275 16.8282 1.34375C18.209 2.38281 21.4219 5.41797 21.4219 11.4062C21.4219 14.5645 20.5469 17.2715 18.838 19.4727C18.1813 20.3343 17.3922 21.0865 16.5001 21.7012C15.6079 21.0865 14.8189 20.3343 14.1622 19.4727C12.4532 17.2715 11.5782 14.5645 11.5782 11.4062C11.5782 5.41797 14.7911 2.38281 16.1719 1.34375ZM6.83405 5.22656C6.87514 5.0992 6.96262 4.99194 7.07913 4.92609C7.19564 4.86024 7.33265 4.84061 7.46296 4.87109C8.82459 5.171 10.1064 5.75833 11.2227 6.59375C10.7199 8.14789 10.4706 9.77286 10.4844 11.4062C10.4844 15.4258 11.8106 18.2148 13.1915 20.0332L12.8497 19.7871C10.9963 18.3898 9.43936 16.6377 8.2696 14.6328C7.68906 13.6579 7.22993 12.6157 6.90241 11.5293L6.87507 11.4609C6.04108 8.64453 6.43757 6.45703 6.83405 5.22656ZM1.11921 12.8145C1.10053 12.7459 1.09575 12.6743 1.10514 12.6039C1.11453 12.5334 1.13791 12.4656 1.17389 12.4043C1.24955 12.282 1.36565 12.1901 1.50202 12.1445C2.95886 11.8078 4.47281 11.8031 5.93171 12.1309C6.28632 13.1918 6.74904 14.2134 7.31257 15.1797C9.07624 18.2422 11.6465 20.4297 13.7247 21.6875C11.2838 21.4485 8.92371 20.6835 6.80671 19.4453C2.82819 17.1484 1.54303 14.3047 1.11921 12.8145ZM31.8809 12.8145C31.4571 14.3047 30.1719 17.1484 26.1934 19.4453C24.0764 20.6835 21.7163 21.4485 19.2755 21.6875C21.3536 20.4297 23.9239 18.2422 25.6876 15.1797C26.2511 14.2134 26.7138 13.1918 27.0684 12.1309C28.5273 11.8031 30.0413 11.8078 31.4981 12.1445C31.6345 12.1901 31.7506 12.282 31.8262 12.4043C31.8622 12.4656 31.8856 12.5334 31.895 12.6039C31.9044 12.6743 31.8996 12.7459 31.8809 12.8145Z" fill="#3F3232"/>
</svg>
